<svg width="351" height="92" viewBox="0 0 351 92" fill="none" xmlns="http://www.w3.org/2000/svg">
<g clip-path="url(#clip0_359_632)">
<path d="M93.9575 0H144.183V8.78779L105.71 56.0482H145.113V66.0384H91V56.6071L129.48 9.99026H93.9575V0Z" fill="white"/>
<path d="M160.927 44.8619C160.927 46.7144 161.187 48.5018 161.714 50.2243C162.234 51.9533 163.02 53.4612 164.073 54.7547C165.12 56.0482 166.446 57.0816 168.051 57.8551C169.657 58.6286 171.568 59.0121 173.784 59.0121C176.865 59.0121 179.348 58.3491 181.227 57.0231C183.105 55.6972 184.509 53.7082 185.432 51.0563H195.423C194.87 53.6432 193.908 55.9572 192.556 57.9916C191.198 60.0261 189.566 61.7355 187.655 63.1265C185.744 64.511 183.599 65.5639 181.227 66.2724C178.854 66.9809 176.371 67.3384 173.784 67.3384C170.021 67.3384 166.693 66.7209 163.794 65.4859C160.895 64.251 158.444 62.5285 156.442 60.3056C154.44 58.0891 152.926 55.4372 151.912 52.3497C150.898 49.2688 150.384 45.8759 150.384 42.1775C150.384 38.7846 150.924 35.5672 152.003 32.5122C153.082 29.4573 154.622 26.7794 156.624 24.4654C158.626 22.1515 161.051 20.3185 163.885 18.96C166.719 17.6016 169.93 16.9256 173.505 16.9256C177.262 16.9256 180.642 17.7121 183.632 19.285C186.622 20.858 189.105 22.938 191.074 25.5314C193.05 28.1183 194.48 31.0953 195.377 34.4557C196.268 37.8161 196.502 41.287 196.073 44.8619H160.927ZM185.529 37.9266C185.406 36.2626 185.048 34.6572 184.463 33.1167C183.878 31.5762 183.073 30.2373 182.059 29.0933C181.038 27.9558 179.809 27.0264 178.36 26.3179C176.91 25.6094 175.292 25.2519 173.505 25.2519C171.717 25.2519 169.975 25.5769 168.461 26.2204C166.946 26.8704 165.653 27.7608 164.574 28.9048C163.495 30.0488 162.63 31.3878 161.987 32.9282C161.337 34.4687 160.986 36.1326 160.921 37.9201H185.523L185.529 37.9266Z" fill="white"/>
<path d="M204.12 18.219H214.11V25.2519L214.292 25.4339C215.898 22.7819 217.991 20.702 220.584 19.1875C223.171 17.6795 226.044 16.9191 229.184 16.9191C234.423 16.9191 238.557 18.2775 241.579 20.988C244.602 23.7049 246.11 27.7738 246.11 33.1947V66.0319H235.567V35.9701C235.443 32.2067 234.644 29.4833 233.162 27.7868C231.68 26.0903 229.372 25.2454 226.226 25.2454C224.439 25.2454 222.833 25.5704 221.416 26.2138C219.999 26.8638 218.797 27.7543 217.809 28.8983C216.821 30.0423 216.054 31.3812 215.495 32.9217C214.942 34.4621 214.663 36.1001 214.663 37.8226V66.0319H204.12V18.219Z" fill="white"/>
<path d="M256.191 0H266.734V9.99026H256.191V0ZM256.191 18.2191H266.734V66.0384H256.191V18.2191Z" fill="white"/>
<path d="M273.396 18.2191H281.352V3.8869H291.895V18.2256H301.425V26.0904H291.895V51.6153C291.895 52.7267 291.941 53.6822 292.032 54.4817C292.123 55.2812 292.337 55.9636 292.682 56.5161C293.02 57.0686 293.527 57.4846 294.209 57.7641C294.885 58.0436 295.815 58.1801 296.985 58.1801C297.726 58.1801 298.467 58.1671 299.208 58.1346C299.949 58.1021 300.69 57.9981 301.425 57.8096V65.9474C300.255 66.0709 299.11 66.1944 298.005 66.3179C296.894 66.4414 295.756 66.4999 294.586 66.4999C291.811 66.4999 289.575 66.2399 287.879 65.7134C286.182 65.1934 284.856 64.4199 283.9 63.3995C282.945 62.379 282.295 61.105 281.957 59.5581C281.619 58.0176 281.417 56.2626 281.359 54.2867V26.0774H273.403V18.2126L273.396 18.2191Z" fill="white"/>
<path d="M309.01 0H319.553V24.5109H319.735C321.028 22.353 322.959 20.5525 325.513 19.103C328.074 17.6536 330.928 16.9321 334.067 16.9321C339.306 16.9321 343.44 18.2906 346.463 21.001C349.485 23.7179 350.993 27.7868 350.993 33.2077V66.0449H340.45V35.9831C340.327 32.2197 339.527 29.4963 338.045 27.7998C336.563 26.1034 334.256 25.2584 331.11 25.2584C329.322 25.2584 327.717 25.5834 326.3 26.2269C324.883 26.8769 323.68 27.7673 322.692 28.9113C321.704 30.0553 320.937 31.3942 320.378 32.9347C319.826 34.4752 319.546 36.1131 319.546 37.8356V66.0449H309.003V0H309.01Z" fill="white"/>
<path d="M91 76.3927H101.953V78.6936H93.665V82.678H101.335V84.849H93.665V89.3014H102.102V91.6023H91V76.3862V76.3927Z" fill="white"/>
<path d="M105.3 76.3927H108.479L111.93 81.7616L115.531 76.3927H118.515L113.484 83.7245L118.879 91.6088H115.642L111.846 85.7915L107.991 91.6088H104.943L110.338 83.7245L105.307 76.3927H105.3Z" fill="white"/>
<path d="M122.629 76.3927H129.343C130.422 76.3927 131.306 76.5487 131.989 76.8607C132.671 77.1727 133.198 77.5626 133.568 78.0306C133.939 78.4986 134.192 79.0121 134.322 79.5646C134.459 80.1171 134.524 80.6306 134.524 81.0986C134.524 81.5665 134.459 82.0735 134.322 82.6195C134.186 83.1655 133.932 83.6725 133.568 84.1405C133.198 84.6085 132.671 84.9985 131.989 85.304C131.306 85.6095 130.429 85.7654 129.343 85.7654H125.294V91.6023H122.629V76.3862V76.3927ZM125.294 83.5945H129.194C129.493 83.5945 129.798 83.549 130.11 83.4645C130.422 83.38 130.708 83.2435 130.975 83.0485C131.235 82.86 131.449 82.6 131.612 82.2815C131.774 81.963 131.859 81.56 131.859 81.0791C131.859 80.5981 131.787 80.1691 131.644 79.8441C131.501 79.5191 131.313 79.2591 131.072 79.0641C130.832 78.8756 130.552 78.7391 130.24 78.6676C129.928 78.5961 129.597 78.5636 129.239 78.5636H125.294V83.5945Z" fill="white"/>
<path d="M139.035 76.3927H149.988V78.6936H141.7V82.678H149.37V84.849H141.7V89.3014H150.137V91.6023H139.035V76.3862V76.3927Z" fill="white"/>
<path d="M154.655 76.3927H160.966C162.13 76.3927 163.137 76.5942 163.995 76.9907C164.847 77.3872 165.542 77.9332 166.082 78.6221C166.621 79.3111 167.024 80.1171 167.284 81.0401C167.544 81.9631 167.681 82.951 167.681 84.004C167.681 85.057 167.551 86.045 167.284 86.9679C167.024 87.8909 166.621 88.6969 166.082 89.3859C165.542 90.0749 164.847 90.6209 163.995 91.0173C163.144 91.4138 162.136 91.6153 160.966 91.6153H154.655V76.3992V76.3927ZM157.32 89.4379H159.939C160.979 89.4379 161.824 89.3014 162.487 89.0219C163.15 88.7424 163.664 88.3589 164.041 87.8714C164.418 87.3839 164.671 86.8055 164.808 86.1425C164.944 85.4795 165.009 84.771 165.009 84.004C165.009 83.237 164.944 82.5221 164.808 81.8591C164.671 81.1961 164.418 80.6241 164.041 80.1301C163.664 79.6426 163.144 79.2591 162.487 78.9796C161.824 78.7001 160.979 78.5637 159.939 78.5637H157.32V89.4314V89.4379Z" fill="white"/>
<path d="M172.237 76.3927H174.902V91.6088H172.237V76.3927Z" fill="white"/>
<path d="M178.913 76.3927H191.23V78.6936H186.394V91.6088H183.729V78.6936H178.913V76.3927Z" fill="white"/>
<path d="M195.189 76.3927H197.854V91.6088H195.189V76.3927Z" fill="white"/>
<path d="M209.787 76.0287C210.925 76.0287 211.945 76.2432 212.849 76.6657C213.752 77.0947 214.513 77.6666 215.137 78.3946C215.761 79.1161 216.242 79.9676 216.573 80.9296C216.905 81.898 217.074 82.9185 217.074 83.9975C217.074 85.0765 216.905 86.1229 216.573 87.0849C216.242 88.0534 215.761 88.8984 215.137 89.6199C214.513 90.3413 213.746 90.9133 212.849 91.3358C211.945 91.7518 210.925 91.9663 209.787 91.9663C208.65 91.9663 207.629 91.7583 206.726 91.3358C205.822 90.9198 205.062 90.3478 204.438 89.6199C203.814 88.8919 203.333 88.0469 203.001 87.0849C202.67 86.1164 202.501 85.0895 202.501 83.9975C202.501 82.9055 202.67 81.8915 203.001 80.9296C203.333 79.9611 203.814 79.1161 204.438 78.3946C205.062 77.6731 205.829 77.0947 206.726 76.6657C207.623 76.2367 208.65 76.0287 209.787 76.0287ZM209.787 78.1996C208.975 78.1996 208.279 78.3621 207.688 78.6871C207.096 79.0121 206.615 79.4541 206.251 80.0001C205.881 80.5461 205.608 81.1701 205.432 81.8655C205.257 82.561 205.166 83.2695 205.166 83.9975C205.166 84.7255 205.257 85.434 205.432 86.1294C205.608 86.8249 205.881 87.4489 206.251 87.9949C206.622 88.5409 207.103 88.9764 207.688 89.3079C208.279 89.6329 208.975 89.7954 209.787 89.7954C210.6 89.7954 211.295 89.6329 211.887 89.3079C212.478 88.9829 212.953 88.5474 213.323 87.9949C213.694 87.4424 213.967 86.8249 214.142 86.1294C214.318 85.434 214.409 84.7255 214.409 83.9975C214.409 83.2695 214.318 82.561 214.142 81.8655C213.967 81.1701 213.694 80.5461 213.323 80.0001C212.953 79.4541 212.472 79.0186 211.887 78.6871C211.295 78.3621 210.6 78.1996 209.787 78.1996Z" fill="white"/>
<path d="M221.598 76.3927H224.412L231.361 87.6049H231.406V76.3927H233.941V91.6088H231.127L224.198 80.4226H224.133V91.6088H221.598V76.3927Z" fill="white"/>
<path d="M257.679 81.2285C257.569 80.7865 257.407 80.3835 257.212 80.0131C257.01 79.6426 256.757 79.3241 256.445 79.0511C256.133 78.7846 255.768 78.5701 255.346 78.4206C254.923 78.2711 254.442 78.1996 253.883 78.1996C253.071 78.1996 252.376 78.3621 251.784 78.6871C251.193 79.0121 250.711 79.4541 250.347 80.0001C249.977 80.546 249.704 81.17 249.529 81.8655C249.353 82.561 249.262 83.2695 249.262 83.9975C249.262 84.7254 249.353 85.4339 249.529 86.1294C249.704 86.8249 249.977 87.4489 250.347 87.9949C250.718 88.5409 251.199 88.9763 251.784 89.3078C252.376 89.6328 253.071 89.7953 253.883 89.7953C254.481 89.7953 255.008 89.6913 255.463 89.4833C255.918 89.2753 256.308 88.9958 256.633 88.6319C256.958 88.2679 257.218 87.8454 257.4 87.3644C257.582 86.8834 257.705 86.3634 257.764 85.8109H260.364C260.305 86.7209 260.111 87.5529 259.779 88.3069C259.448 89.0608 258.992 89.7108 258.427 90.2568C257.861 90.8028 257.192 91.2253 256.425 91.5243C255.658 91.8233 254.813 91.9728 253.89 91.9728C252.753 91.9728 251.732 91.7648 250.829 91.3423C249.925 90.9263 249.164 90.3543 248.54 89.6263C247.916 88.8983 247.436 88.0534 247.104 87.0914C246.773 86.1229 246.604 85.0959 246.604 84.004C246.604 82.912 246.773 81.898 247.104 80.936C247.436 79.9676 247.916 79.1226 248.54 78.4011C249.164 77.6796 249.932 77.1011 250.829 76.6721C251.726 76.2431 252.753 76.0352 253.89 76.0352C254.742 76.0352 255.548 76.1521 256.295 76.3861C257.049 76.6201 257.712 76.9646 258.29 77.4066C258.862 77.8551 259.33 78.3946 259.688 79.0381C260.045 79.6816 260.267 80.4096 260.351 81.235H257.686L257.679 81.2285Z" fill="white"/>
<path d="M264.986 76.3927H272.252C273.929 76.3927 275.184 76.7567 276.022 77.4782C276.861 78.2062 277.277 79.2136 277.277 80.5071C277.277 81.2286 277.173 81.8331 276.958 82.3076C276.744 82.782 276.497 83.1655 276.211 83.458C275.925 83.7505 275.645 83.9585 275.372 84.0885C275.093 84.2185 274.891 84.303 274.768 84.342V84.3875C274.995 84.4135 275.242 84.485 275.502 84.602C275.762 84.7125 276.01 84.8945 276.237 85.148C276.465 85.395 276.653 85.72 276.802 86.1165C276.952 86.513 277.023 87.0134 277.023 87.6114C277.023 88.5084 277.088 89.3209 277.225 90.0489C277.361 90.7834 277.569 91.3033 277.855 91.6153H275.002C274.8 91.2903 274.684 90.9264 274.651 90.5299C274.619 90.1334 274.599 89.7499 274.599 89.3794C274.599 88.6839 274.554 88.0859 274.469 87.5789C274.385 87.0719 274.229 86.656 274.001 86.3245C273.774 85.993 273.461 85.746 273.071 85.59C272.681 85.434 272.181 85.356 271.57 85.356H267.65V91.6218H264.986V76.4057V76.3927ZM267.65 83.3215H272.018C272.87 83.3215 273.52 83.12 273.955 82.7171C274.397 82.3141 274.618 81.7031 274.618 80.8971C274.618 80.4161 274.547 80.0196 274.404 79.7141C274.261 79.4086 274.066 79.1681 273.819 78.9991C273.572 78.8301 273.286 78.7131 272.968 78.6611C272.649 78.6026 272.317 78.5766 271.979 78.5766H267.65V83.328V83.3215Z" fill="white"/>
<path d="M282.015 76.3927H284.68V85.2585C284.68 85.772 284.706 86.2855 284.752 86.8119C284.804 87.3384 284.94 87.8129 285.181 88.2289C285.415 88.6514 285.772 88.9959 286.247 89.2624C286.721 89.5354 287.391 89.6654 288.262 89.6654C289.133 89.6654 289.802 89.5289 290.277 89.2624C290.751 88.9959 291.109 88.6449 291.343 88.2289C291.577 87.8129 291.72 87.3384 291.772 86.8119C291.824 86.2855 291.843 85.7655 291.843 85.2585V76.3927H294.508V86.1295C294.508 87.1109 294.359 87.9624 294.06 88.6839C293.761 89.4054 293.338 90.0164 292.792 90.5039C292.246 90.9914 291.59 91.3618 290.823 91.6023C290.056 91.8428 289.204 91.9663 288.268 91.9663C287.332 91.9663 286.481 91.8428 285.707 91.6023C284.94 91.3618 284.284 90.9979 283.738 90.5039C283.192 90.0164 282.769 89.4054 282.47 88.6839C282.171 87.9624 282.022 87.1044 282.022 86.1295V76.3927H282.015Z" fill="white"/>
<path d="M299.767 76.3927H302.432V91.6088H299.767V76.3927Z" fill="white"/>
<path d="M309.634 86.5389C309.634 87.1239 309.732 87.6179 309.933 88.0339C310.135 88.4434 310.408 88.7814 310.765 89.0478C311.123 89.3143 311.525 89.5028 311.993 89.6263C312.461 89.7498 312.955 89.8083 313.495 89.8083C314.08 89.8083 314.574 89.7433 314.99 89.6068C315.4 89.4703 315.738 89.2948 315.991 89.0868C316.245 88.8723 316.433 88.6254 316.543 88.3524C316.654 88.0729 316.713 87.7934 316.713 87.5139C316.713 86.9289 316.583 86.4999 316.316 86.2269C316.056 85.9474 315.764 85.7524 315.452 85.6419C314.912 85.4404 314.282 85.2519 313.567 85.0764C312.852 84.9009 311.967 84.667 310.914 84.381C310.258 84.212 309.719 83.9845 309.283 83.7115C308.848 83.432 308.503 83.1265 308.25 82.782C307.996 82.444 307.814 82.08 307.704 81.6965C307.6 81.313 307.541 80.923 307.541 80.5265C307.541 79.7596 307.704 79.0966 308.022 78.5311C308.341 77.9721 308.763 77.5041 309.289 77.1336C309.816 76.7631 310.414 76.4901 311.077 76.3147C311.746 76.1392 312.423 76.0482 313.105 76.0482C313.898 76.0482 314.652 76.1522 315.354 76.3602C316.056 76.5681 316.674 76.8736 317.207 77.2896C317.74 77.6991 318.162 78.2126 318.474 78.8106C318.786 79.4151 318.942 80.1171 318.942 80.91H316.277C316.205 79.9286 315.874 79.2396 315.276 78.8301C314.678 78.4271 313.918 78.2256 312.995 78.2256C312.683 78.2256 312.364 78.2581 312.032 78.3231C311.707 78.3881 311.409 78.4921 311.136 78.6416C310.863 78.7911 310.642 78.9926 310.466 79.2461C310.291 79.4996 310.2 79.8246 310.2 80.2081C310.2 80.7475 310.369 81.17 310.7 81.4755C311.032 81.781 311.473 82.015 312.013 82.171C312.071 82.184 312.292 82.249 312.682 82.353C313.072 82.457 313.508 82.574 313.996 82.704C314.477 82.834 314.951 82.9575 315.413 83.0745C315.874 83.198 316.205 83.2825 316.4 83.341C316.894 83.497 317.33 83.7115 317.7 83.978C318.071 84.251 318.377 84.5565 318.63 84.9074C318.877 85.2584 319.065 85.6289 319.182 86.0254C319.306 86.4219 319.364 86.8184 319.364 87.2214C319.364 88.0729 319.189 88.8009 318.845 89.4053C318.494 90.0098 318.039 90.5038 317.473 90.8873C316.901 91.2708 316.258 91.5503 315.536 91.7258C314.808 91.9013 314.074 91.9923 313.32 91.9923C312.455 91.9923 311.636 91.8883 310.869 91.6738C310.102 91.4593 309.432 91.1343 308.867 90.6923C308.301 90.2503 307.846 89.6848 307.502 88.9958C307.164 88.3069 306.982 87.4944 306.969 86.5584H309.634V86.5389Z" fill="white"/>
<path d="M323.895 76.3927H334.847V78.6936H326.56V82.678H334.23V84.849H326.56V89.3014H334.997V91.6023H323.895V76.3862V76.3927Z" fill="white"/>
<path d="M341.263 86.5389C341.263 87.1239 341.36 87.6179 341.562 88.0339C341.763 88.4434 342.036 88.7814 342.394 89.0478C342.751 89.3143 343.154 89.5028 343.622 89.6263C344.09 89.7498 344.584 89.8083 345.124 89.8083C345.709 89.8083 346.203 89.7433 346.619 89.6068C347.028 89.4703 347.366 89.2948 347.62 89.0868C347.873 88.8723 348.062 88.6254 348.172 88.3524C348.283 88.0729 348.341 87.7934 348.341 87.5139C348.341 86.9289 348.211 86.4999 347.945 86.2269C347.685 85.9474 347.392 85.7524 347.08 85.6419C346.541 85.4404 345.91 85.2519 345.195 85.0764C344.48 84.9009 343.596 84.667 342.543 84.381C341.887 84.212 341.347 83.9845 340.912 83.7115C340.476 83.432 340.132 83.1265 339.878 82.782C339.625 82.444 339.443 82.08 339.332 81.6965C339.228 81.313 339.17 80.923 339.17 80.5265C339.17 79.7596 339.332 79.0966 339.651 78.5311C339.969 77.9721 340.392 77.5041 340.918 77.1336C341.445 76.7631 342.043 76.4901 342.706 76.3147C343.375 76.1392 344.051 76.0482 344.734 76.0482C345.527 76.0482 346.281 76.1522 346.983 76.3602C347.685 76.5681 348.302 76.8736 348.835 77.2896C349.368 77.6991 349.791 78.2126 350.103 78.8106C350.415 79.4151 350.571 80.1171 350.571 80.91H347.906C347.834 79.9286 347.503 79.2396 346.905 78.8301C346.307 78.4271 345.546 78.2256 344.623 78.2256C344.311 78.2256 343.993 78.2581 343.661 78.3231C343.336 78.3881 343.037 78.4921 342.764 78.6416C342.491 78.7911 342.27 78.9926 342.095 79.2461C341.919 79.4996 341.828 79.8246 341.828 80.2081C341.828 80.7475 341.997 81.17 342.329 81.4755C342.66 81.781 343.102 82.015 343.642 82.171C343.7 82.184 343.921 82.249 344.311 82.353C344.701 82.457 345.137 82.574 345.624 82.704C346.105 82.834 346.58 82.9575 347.041 83.0745C347.503 83.198 347.834 83.2825 348.029 83.341C348.523 83.497 348.959 83.7115 349.329 83.978C349.7 84.251 350.005 84.5565 350.259 84.9074C350.506 85.2584 350.694 85.6289 350.811 86.0254C350.935 86.4219 350.993 86.8184 350.993 87.2214C350.993 88.0729 350.818 88.8009 350.473 89.4053C350.122 90.0098 349.667 90.5038 349.102 90.8873C348.53 91.2708 347.886 91.5503 347.165 91.7258C346.437 91.9013 345.702 91.9923 344.948 91.9923C344.084 91.9923 343.265 91.8883 342.498 91.6738C341.731 91.4593 341.061 91.1343 340.496 90.6923C339.93 90.2503 339.475 89.6848 339.131 88.9958C338.793 88.3069 338.611 87.4944 338.598 86.5584H341.263V86.5389Z" fill="white"/>
</g>
<g clip-path="url(#clip1_359_632)">
<path fill-rule="evenodd" clip-rule="evenodd" d="M38.1963 0L42.3982 40.9267L76.3926 45.985L42.3982 51.0434L38.1963 91.97L33.9944 51.0434L0 45.985L33.9944 40.9267L38.1963 0Z" fill="white"/>
</g>
<defs>
<clipPath id="clip0_359_632">
<rect width="260" height="91.9728" fill="white" transform="translate(91)"/>
</clipPath>
<clipPath id="clip1_359_632">
<rect width="76.3926" height="91.97" fill="white"/>
</clipPath>
</defs>
</svg>
